<mxfile host="Electron" agent="Mozilla/5.0 (Windows NT 10.0; Win64; x64) AppleWebKit/537.36 (KHTML, like Gecko) draw.io/24.7.8 Chrome/128.0.6613.36 Electron/32.0.1 Safari/537.36" version="24.7.8">
  <diagram name="Page-1" id="jYA89bQV37Lz2uGo-9EW">
    <mxGraphModel dx="627" dy="565" grid="1" gridSize="10" guides="1" tooltips="1" connect="1" arrows="1" fold="1" page="1" pageScale="1" pageWidth="850" pageHeight="1100" math="0" shadow="0">
      <root>
        <mxCell id="0" />
        <mxCell id="1" parent="0" />
        <mxCell id="RwNdKX9kt3fSxQMQQ1Ld-1" value="" style="triangle;whiteSpace=wrap;html=1;direction=north;" vertex="1" parent="1">
          <mxGeometry x="270" y="330" width="400" height="300" as="geometry" />
        </mxCell>
        <mxCell id="RwNdKX9kt3fSxQMQQ1Ld-2" value="ISO" style="text;html=1;align=center;verticalAlign=middle;whiteSpace=wrap;rounded=0;rotation=-55;" vertex="1" parent="1">
          <mxGeometry x="330" y="450" width="60" height="30" as="geometry" />
        </mxCell>
        <mxCell id="RwNdKX9kt3fSxQMQQ1Ld-3" value="Shutter" style="text;html=1;align=center;verticalAlign=middle;whiteSpace=wrap;rounded=0;rotation=55;" vertex="1" parent="1">
          <mxGeometry x="550" y="450" width="60" height="30" as="geometry" />
        </mxCell>
        <mxCell id="RwNdKX9kt3fSxQMQQ1Ld-5" value="Aperture" style="text;html=1;align=center;verticalAlign=middle;whiteSpace=wrap;rounded=0;rotation=0;" vertex="1" parent="1">
          <mxGeometry x="440" y="650" width="60" height="30" as="geometry" />
        </mxCell>
        <mxCell id="RwNdKX9kt3fSxQMQQ1Ld-6" value="1.4&amp;nbsp; &amp;nbsp; &amp;nbsp;2&amp;nbsp; &amp;nbsp; &amp;nbsp;2.8&amp;nbsp; &amp;nbsp; &amp;nbsp;4&amp;nbsp; &amp;nbsp; &amp;nbsp;5.6&amp;nbsp; &amp;nbsp; &amp;nbsp;8&amp;nbsp; &amp;nbsp; &amp;nbsp;11&amp;nbsp; &amp;nbsp; &amp;nbsp;16&amp;nbsp; &amp;nbsp; &amp;nbsp;22" style="text;html=1;align=center;verticalAlign=middle;whiteSpace=wrap;rounded=0;" vertex="1" parent="1">
          <mxGeometry x="290" y="630" width="340" height="30" as="geometry" />
        </mxCell>
      </root>
    </mxGraphModel>
  </diagram>
</mxfile>
